<svg t="1733981463885" class="icon" viewBox="0 0 1024 1024" version="1.1" xmlns="http://www.w3.org/2000/svg" p-id="13461" width="32" height="32"><path d="M889.33376 24.94464c-6.32832-10.53696-22.39488-5.96992-22.38464 6.31808v0.44032c0 158.84288-91.2384 296.3456-224.16384 363.03872v232.0384a404.61312 404.61312 0 0 0 304.18944-389.18144A404.0704 404.0704 0 0 0 889.344 24.94464z" fill="#A66EDD" p-id="13462"></path><path d="M43.50976 536.44288a468.49024 468.49024 0 1 0 936.99072 0 468.49024 468.49024 0 0 0-936.99072 0z" fill="#A66EDD" p-id="13463"></path><path d="M612.39296 935.7824c-258.74432 0-468.48-209.75616-468.48-468.49024 0-138.24 59.87328-262.47168 155.10528-348.22144C147.34336 196.608 43.50976 354.4064 43.50976 536.45312c0 258.74432 209.74592 468.49024 468.49024 468.49024 120.50432 0 230.37952-45.50656 313.38496-120.2688a466.5344 466.5344 0 0 1-212.992 51.0976z" fill="#7D45B2" p-id="13464"></path><path d="M459.02848 526.1312a51.98848 51.98848 0 1 0 103.96672 0 51.98848 51.98848 0 0 0-103.96672 0zM737.20832 512.0512a51.98848 51.98848 0 1 0 103.97696 0 51.98848 51.98848 0 0 0-103.97696 0z" fill="#FC4C59" p-id="13465"></path><path d="M644.78208 822.33344c-50.33984 0-98.92864-21.52448-137.73824-61.2352a19.06688 19.06688 0 0 1 27.25888-26.64448c33.4336 34.2016 75.23328 51.80416 117.80096 49.5616 41.96352-2.21184 82.0224-24.7808 112.83456-63.5392a19.05664 19.05664 0 0 1 29.83936 23.72608c-37.6832 47.4112-87.64416 75.07968-140.65664 77.8752-3.11296 0.17408-6.22592 0.256-9.33888 0.256zM512.1024 597.15584a73.65632 73.65632 0 0 1-67.01056-42.97728c-9.03168-19.75296-8.704-43.99104 0.86016-64.84992a73.6768 73.6768 0 0 1 16.24064-22.91712l-8.87808-4.58752c-13.01504-6.7584-23.48032-12.94336-33.60768-18.90304-11.96032-7.0656-24.33024-14.36672-41.90208-23.26528a19.05664 19.05664 0 0 1 17.22368-33.9968c18.66752 9.44128 31.58016 17.05984 44.06272 24.43264 10.11712 5.98016 19.69152 11.6224 31.78496 17.90976 8.1408 4.21888 16.03584 8.25344 23.61344 12.12416 32.43008 16.56832 60.43648 30.8736 79.08352 46.00832 2.27328 1.8432 4.096 4.1984 5.3248 6.87104 16.86528 36.89472 0.57344 80.61952-36.31104 97.4848a73.216 73.216 0 0 1-30.48448 6.656zM501.76 486.73792a16.896 16.896 0 0 1-1.19808 0.37888c-11.13088 3.2256-16.9984 11.6224-19.968 18.09408-4.864 10.58816-5.19168 23.58272-0.83968 33.10592a35.4816 35.4816 0 0 0 58.20416 9.4208c3.1744-3.42016 5.632-7.424 7.24992-11.78624a35.18464 35.18464 0 0 0 0.54272-23.18336c-11.008-8.17152-26.2656-16.73216-44.00128-26.03008z m290.02752 97.47456a73.28768 73.28768 0 0 1-30.55616-6.7072 73.07264 73.07264 0 0 1-38.3488-41.22624c-6.8608-18.41152-6.13376-38.38976 2.048-56.2688a19.0464 19.0464 0 0 1 6.00064-7.39328c20.03968-14.80704 46.4896-30.18752 78.63296-45.7216 48.2304-23.31648 51.42528-25.1904 90.63424-48.19968l5.9904-3.51232a19.0464 19.0464 0 1 1 19.28192 32.88064l-5.9904 3.51232c-34.3552 20.15232-42.01472 24.64768-75.85792 41.15456a75.6736 75.6736 0 0 1 16.98816 26.33728 80.83456 80.83456 0 0 1-1.8944 62.12608 73.08288 73.08288 0 0 1-41.216 38.3488c-8.22272 3.072-16.93696 4.6592-25.71264 4.66944zM757.9648 500.1216a35.18464 35.18464 0 0 0 0.64512 22.86592 35.21536 35.21536 0 0 0 18.47296 19.8656 35.2256 35.2256 0 0 0 27.10528 0.98304 35.19488 35.19488 0 0 0 19.8656-18.4832c4.58752-10.01472 4.93568-22.2208 0.95232-32.64512a37.45792 37.45792 0 0 0-19.74272-20.97152c-18.4832 9.70752-34.32448 19.21024-47.29856 28.38528z" fill="#3A2568" p-id="13466"></path><path d="M270.336 277.82144c-59.66848-62.62784-96.31744-147.4048-96.31744-240.7424v-0.37888c0.01024-10.56768-13.80352-14.4896-19.2512-5.4272a347.4944 347.4944 0 0 0-49.5616 182.85568c0.54272 56.12544 14.1312 108.94336 37.90848 155.58656 0 0 7.40352 15.5648 15.9744 26.05056l111.2576-117.94432z" fill="#A66EDD" p-id="13467"></path><path d="M954.624 332.16512a430.88896 430.88896 0 0 0 11.4176-94.38208 424.22272 424.22272 0 0 0-60.3648-222.64832A30.7712 30.7712 0 0 0 870.72768 1.16736a30.89408 30.89408 0 0 0-22.8352 30.1056v0.43008c0 45.29152-7.70048 89.32352-22.86592 131.2768C740.29056 91.82208 631.07072 48.90624 512 48.90624a487.56736 487.56736 0 0 0-298.69056 102.21568A329.96352 329.96352 0 0 1 193.0752 37.0688v-0.3584a29.21472 29.21472 0 0 0-21.57568-28.4672 29.11232 29.11232 0 0 0-33.06496 13.2096A367.50336 367.50336 0 0 0 86.14912 214.3232c0.5632 57.87648 14.00832 113.07008 39.9872 164.0448a19.0464 19.0464 0 1 0 33.95584-17.3056c-23.26528-45.6704-35.328-95.1808-35.81952-147.10784a329.95328 329.95328 0 0 1 32.03072-145.29536c7.07584 83.2512 42.04544 161.23904 100.2496 222.3104a19.05664 19.05664 0 1 0 27.58656-26.29632 330.47552 330.47552 0 0 1-55.01952-77.44512 449.39264 449.39264 0 0 1 282.89024-100.20864c247.808 0 449.4336 201.61536 449.4336 449.4336 0 247.808-201.6256 449.4336-449.4336 449.4336-247.81824 0-449.4336-201.6256-449.4336-449.4336 0-30.11584 2.99008-60.23168 8.9088-89.4976a19.05664 19.05664 0 1 0-37.376-7.53664 491.35616 491.35616 0 0 0-9.65632 97.03424C24.45312 805.28384 243.16928 1024 512 1024c268.84096 0 487.54688-218.71616 487.54688-487.54688 0-72.9088-16.10752-142.12096-44.92288-204.288z m-99.33824-141.57824a420.58752 420.58752 0 0 0 30.0032-133.7344 386.51904 386.51904 0 0 1 42.62912 180.56192 395.52 395.52 0 0 1-2.53952 40.82688 490.8544 490.8544 0 0 0-70.0928-87.6544z" fill="#000000" p-id="13468"></path><path d="M534.2208 734.45376a19.0464 19.0464 0 1 0-27.26912 26.64448c38.8096 39.71072 87.40864 61.2352 137.73824 61.2352 3.11296 0 6.22592-0.08192 9.33888-0.256 53.01248-2.79552 102.97344-30.45376 140.65664-77.8752a19.06688 19.06688 0 0 0-29.83936-23.72608c-30.80192 38.7584-70.87104 61.32736-112.82432 63.54944-42.56768 2.23232-84.3776-15.36-117.8112-49.57184z m39.26016-248.32c-18.6368-15.13472-46.65344-29.44-79.08352-46.00832-7.8848-4.01408-15.74912-8.05888-23.61344-12.1344-12.0832-6.27712-21.6576-11.91936-31.77472-17.89952-12.4928-7.3728-25.3952-14.98112-44.07296-24.44288a19.0464 19.0464 0 1 0-17.21344 33.9968c17.57184 8.9088 29.94176 16.20992 41.91232 23.27552a671.20128 671.20128 0 0 0 42.46528 23.49056 73.65632 73.65632 0 0 0-16.24064 22.91712c-9.5744 20.85888-9.89184 45.09696-0.84992 64.86016A73.66656 73.66656 0 0 0 512 597.15584a73.14432 73.14432 0 0 0 30.48448-6.656c36.88448-16.87552 53.17632-60.61056 36.31104-97.49504a19.0976 19.0976 0 0 0-5.3248-6.88128z m-46.848 69.69344a35.49184 35.49184 0 0 1-46.97088-17.50016c-4.352-9.5232-4.02432-22.50752 0.83968-33.10592 2.9696-6.47168 8.84736-14.86848 19.968-18.08384 0.4096-0.11264 0.79872-0.24576 1.19808-0.38912 17.72544 9.29792 32.9728 17.85856 43.99104 26.04032a35.49184 35.49184 0 0 1-19.02592 43.03872zM925.3888 408.064a19.0464 19.0464 0 1 0-19.27168-32.8704l-5.9904 3.50208c-39.2192 23.00928-42.41408 24.8832-90.64448 48.19968-32.13312 15.53408-58.59328 30.9248-78.62272 45.7216a19.05664 19.05664 0 0 0-6.01088 7.40352 73.09312 73.09312 0 0 0-2.048 56.2688c6.8608 18.40128 20.48 33.05472 38.35904 41.22624a73.32864 73.32864 0 0 0 30.54592 6.69696c8.66304 0 17.34656-1.54624 25.71264-4.66944a73.1136 73.1136 0 0 0 41.22624-38.3488 80.83456 80.83456 0 0 0 1.88416-62.11584 75.60192 75.60192 0 0 0-16.97792-26.33728c33.83296-16.50688 41.50272-21.00224 75.85792-41.15456l5.98016-3.52256z m-101.40672 117.27872a35.20512 35.20512 0 0 1-19.8656 18.4832 35.24608 35.24608 0 0 1-27.10528-0.98304 35.20512 35.20512 0 0 1-18.4832-19.8656 35.15392 35.15392 0 0 1-0.64512-22.86592c12.97408-9.17504 28.81536-18.67776 47.3088-28.38528a37.43744 37.43744 0 0 1 19.74272 20.97152 43.07968 43.07968 0 0 1-0.95232 32.64512zM51.73248 376.70912a19.05664 19.05664 0 1 0 38.11328 0 19.05664 19.05664 0 0 0-38.11328 0z" fill="#000000" p-id="13469"></path></svg>